<?xml version="1.0" encoding="UTF-8" standalone="no"?>
<!--
    Sources:
    Android SVG Vector 36 (https://www.svgrepo.com/svg/349588/android)
    COLLECTION: Tiny App Icons (https://www.svgrepo.com/collection/tiny-app-icons/)
    LICENSE: MIT License (https://www.svgrepo.com/page/licensing/#MIT)
    AUTHOR: edent (https://www.svgrepo.com/author/edent/)

    Aplication Deb Dll SVG Vector (https://www.svgrepo.com/svg/415196/aplication-deb-dll)
    COLLECTION: File Types Outline Duotone Icons (https://www.svgrepo.com/collection/file-types-outline-duotone-icons/)
    LICENSE: CC Attribution License (https://www.svgrepo.com/page/licensing/#CC%20Attribution)
    AUTHOR: Lutfi Achmad (https://www.svgrepo.com/author/Lutfi%20Achmad/)
 -->

<svg
   width="40"
   height="40"
   viewBox="0 0 40 40"
   version="1.1"
   id="svg22"
   xml:space="preserve"
   xmlns="http://www.w3.org/2000/svg"
   xmlns:svg="http://www.w3.org/2000/svg"><defs
     id="defs1"><style
       id="style1">.cls-1{fill:#f57c00;}.cls-2{fill:#666;}.cls-3{fill:#999;}</style><style
       id="style1-8">.cls-1{fill:#f57c00;}.cls-2{fill:#666;}.cls-3{fill:#999;}</style></defs><title
     id="title1" /><g
     id="outline_color"
     transform="matrix(0.65721059,0,0,0.65721059,-1.083462,-1.0246091)"><g
       id="outline_color-5"
       transform="matrix(0.99647567,0,0,0.99647567,0.07684763,0.05577301)"><path
         class="cls-2"
         d="m 14.92,29.18 a 3.93,3.93 0 0 1 -1.43,-0.26 4,4 0 0 1 -0.21,-7.39 3.92,3.92 0 0 1 3.06,-0.08 4,4 0 0 1 2.31,5.16 4,4 0 0 1 -2.1,2.22 3.89,3.89 0 0 1 -1.63,0.35 z m 0,-6 a 2,2 0 0 0 -1.87,1.29 2,2 0 1 0 3.73,1.43 1.94,1.94 0 0 0 0,-1.53 v 0 a 2,2 0 0 0 -1.11,-1.06 2.17,2.17 0 0 0 -0.75,-0.13 z"
         id="path6" /><path
         class="cls-2"
         d="M 21.62,26.47 A 1,1 0 0 1 20.71,25.88 L 18.26,20.4 a 1,1 0 1 1 1.82,-0.81 l 2.45,5.48 a 1,1 0 0 1 -0.5,1.32 1,1 0 0 1 -0.41,0.08 z"
         id="path7" /><path
         class="cls-2"
         d="m 23.39,23 a 1,1 0 0 1 -0.81,-0.42 2.93,2.93 0 0 1 -0.37,-0.67 4,4 0 0 1 2,-5.25 3.41,3.41 0 0 1 0.68,-0.23 1,1 0 1 1 0.46,1.94 2.19,2.19 0 0 0 -0.33,0.12 2,2 0 0 0 -1,2.63 2,2 0 0 0 0.16,0.3 A 1,1 0 0 1 24,22.79 1,1 0 0 1 23.39,23 Z"
         id="path8" /><path
         class="cls-2"
         d="m 18.85,34.88 a 1,1 0 0 1 -1,-0.73 4,4 0 0 1 1.66,-4.41 1,1 0 0 1 1.29,0.14 1,1 0 0 1 0,1.4 v 0 a 0.79,0.79 0 0 1 -0.15,0.12 2,2 0 0 0 -0.84,2.19 1,1 0 0 1 -0.68,1.24 1,1 0 0 1 -0.28,0.05 z"
         id="path9" /><path
         class="cls-2"
         d="m 17.48,39.28 a 1,1 0 0 1 -0.91,-0.6 L 14.12,33.21 A 1.0255243,1.0255243 0 1 1 16,32.39 l 2.44,5.48 a 1,1 0 0 1 -0.5,1.32 1,1 0 0 1 -0.46,0.09 z"
         id="path10-3" /><path
         class="cls-3"
         d="m 21.66,55.1 a 5,5 0 0 1 -4.55,-3 L 4.46,23.84 A 5,5 0 0 1 7,17.23 L 28,7.82 a 1,1 0 0 1 1.34,1.27 L 18.71,37 a 3,3 0 0 0 1.73,3.87 l 4.48,1.72 A 1,1 0 0 1 24.6,44.53 1,1 0 0 1 24.23,44.46 L 19.72,42.73 A 5,5 0 0 1 16.85,36.28 L 26.66,10.6 7.8,19.05 a 3,3 0 0 0 -1.52,4 l 12.65,28.3 a 3,3 0 0 0 3.28,1.73 1.0160709,1.0160709 0 1 1 0.36,2 4.68,4.68 0 0 1 -0.91,0.02 z"
         id="path11-5" /><path
         class="cls-3"
         d="M 51.91,38 A 0.92,0.92 0 0 1 51.55,37.93 1,1 0 0 1 51,36.64 L 57.83,18.77 A 3,3 0 0 0 56.09,14.9 L 33.65,6.33 a 3,3 0 0 0 -3.88,1.74 l -0.39,1 A 1,1 0 1 1 27.52,8.35 l 0.39,-1 A 5,5 0 0 1 34.37,4.47 L 56.79,13 a 5,5 0 0 1 2.89,6.44 L 52.84,37.36 A 1,1 0 0 1 51.91,38 Z"
         id="path12-4" /><path
         class="cls-2"
         d="m 34.35,19.7 a 3.92,3.92 0 0 1 -1.42,-0.26 4,4 0 1 1 5.16,-2.31 v 0 a 4,4 0 0 1 -3.74,2.57 z m 0,-6 a 2,2 0 1 0 1.86,2.72 v 0 a 2,2 0 0 0 -1.15,-2.59 2.27,2.27 0 0 0 -0.7,-0.13 z m 2.8,3.07 z"
         id="path13-3" /><path
         class="cls-2"
         d="M 38.89,21.65 A 0.92,0.92 0 0 1 38.53,21.58 1,1 0 0 1 38,20.29 l 2.15,-5.6 A 1,1 0 1 1 42,15.4 L 39.82,21 a 1,1 0 0 1 -0.93,0.65 z"
         id="path14-6" /><path
         class="cls-2"
         d="m 45.56,24 a 4,4 0 0 1 -3.65,-2.37 4,4 0 0 1 2,-5.28 4,4 0 0 1 3.09,-0.1 4,4 0 0 1 2.31,5.17 v 0 A 4,4 0 0 1 45.56,24 Z m 0,-6 a 1.9,1.9 0 0 0 -0.81,0.17 2,2 0 0 0 -1.06,1.11 2,2 0 0 0 2.69,2.54 1.94,1.94 0 0 0 1,-1.11 A 2,2 0 0 0 46.23,18.13 2,2 0 0 0 45.56,18 Z m 2.8,3.07 z"
         id="path15-5" /><path
         class="cls-2"
         d="M 50.1,25.93 A 1.13,1.13 0 0 1 49.74,25.87 1,1 0 0 1 49.16,24.58 L 51.3,19 a 1,1 0 0 1 1.3,-0.58 1,1 0 0 1 0.57,1.29 L 51,25.29 a 1,1 0 0 1 -0.9,0.64 z"
         id="path16-9" /><path
         class="cls-2"
         d="M 44.8,34.4 A 4.11,4.11 0 0 1 43.37,34.14 4,4 0 0 1 41.06,29 v 0 a 4,4 0 1 1 7.47,2.86 4,4 0 0 1 -2.1,2.22 4.09,4.09 0 0 1 -1.63,0.32 z m -1.87,-4.71 a 2,2 0 0 0 1.15,2.58 2,2 0 0 0 1.53,0 2,2 0 1 0 -2.68,-2.54 z"
         id="path17-5" /><path
         class="cls-2"
         d="M 38.12,32.06 A 0.92,0.92 0 0 1 37.76,31.99 1,1 0 0 1 37.18,30.7 l 2.15,-5.6 a 1,1 0 1 1 1.86,0.71 l -2.14,5.61 a 1,1 0 0 1 -0.93,0.64 z"
         id="path18-4" /><path
         class="cls-2"
         d="m 33.58,30.11 a 4,4 0 0 1 -1.42,-0.26 4,4 0 0 1 -2.31,-5.16 v 0 a 4,4 0 1 1 3.73,5.42 z M 31.72,25.4 a 2,2 0 1 0 2.58,-1.15 2,2 0 0 0 -2.58,1.15 z"
         id="path19-9" /><path
         class="cls-2"
         d="M 26.91,27.77 A 1.13,1.13 0 0 1 26.55,27.71 1,1 0 0 1 26,26.42 l 2.14,-5.61 a 1.0019107,1.0019107 0 0 1 1.87,0.72 l -2.15,5.6 a 1,1 0 0 1 -0.95,0.64 z"
         id="path20-1" /><g
         id="g22"
         transform="matrix(0.08935887,0,0,0.08935887,17.573787,25.636228)"><path
           d="m 338.1555,305.70985 a 14.86683,14.86683 0 1 1 14.8641,-14.86963 14.88644,14.88644 0 0 1 -14.8641,14.86963 m -164.311,0 a 14.86683,14.86683 0 1 1 14.864,-14.86963 14.883638,14.883638 0 0 1 -14.864,14.86963 m 169.642,-89.54555 29.7085,-51.45542 a 6.1820238,6.1820238 0 1 0 -10.704,-6.18821 l -30.0839,52.10534 c -23.0047,-10.49951 -48.8417,-16.34595 -76.4099,-16.34595 -27.5682,0 -53.4024,5.85485 -76.4072,16.34595 l -30.081,-52.10534 a 6.1811349,6.1811349 0 1 0 -10.7068,6.1798 l 29.7113,51.46383 C 117.4979,243.9118 82.6041,295.55771 77.5,356.57699 h 357 C 429.3903,295.55771 394.4993,243.9118 343.4865,216.1643"
           fill="#3ddc84"
           id="path1" /></g></g></g></svg>
